<svg viewBox="-422 -217 264 164" width="264" height="164" version="1.1" baseProfile="full" xmlns="http://www.w3.org/2000/svg" class="js-draw--autoresize"><style id="js-draw-style-sheet">path{stroke-linecap:round;stroke-linejoin:round;}text{white-space:pre;}</style><path d="M-158,-53l0-164l-264,0l0,164l264,0" fill="#ffffff" class="js-draw-image-background"></path><path d="M-400,-154q-8,17 -8,31q0,39 63,61q21,7 122-7q26-4 34-6q16-4 18-43q-3-24 -8-44q-5-23 -62-42q-32-11 -104,0q-33,5 -67,67q-8,15 -8,20q0,20 9,20q2,0 7-4" fill="none" stroke="#803380" stroke-width="4"></path><path d="M-285,-186q-18,10 -32,24q-24,25 -32,42q-3,6 14-1q26-10 47-17q13-5 16-23q2-7 5-13q0-3 -1-5q0-2 -6,4" fill="none" stroke="#803380" stroke-width="4"></path><path d="M-233,-166q-12,12 -21,28q-17,30 -9,45q2,3 59-28q23-12 36-29q0,0 0-3" fill="none" stroke="#803380" stroke-width="4"></path><path d="M-236,-158q45-3 72-3q4,0 1,12" fill="none" stroke="#803380" stroke-width="4"></path></svg>